<svg width="14" height="14" viewBox="0 0 14 14" fill="none" xmlns="http://www.w3.org/2000/svg">
<path d="M7.21825 3.44141C9.12548 3.44141 10.6997 5.01562 10.6997 6.92285C10.6997 8.86035 9.12548 10.4043 7.21825 10.4043C5.28075 10.4043 3.7368 8.86035 3.7368 6.92285C3.7368 5.01562 5.28075 3.44141 7.21825 3.44141ZM7.21825 9.19336C8.45946 9.19336 9.45848 8.19434 9.45848 6.92285C9.45848 5.68164 8.45946 4.68262 7.21825 4.68262C5.94676 4.68262 4.94774 5.68164 4.94774 6.92285C4.94774 8.19434 5.97704 9.19336 7.21825 9.19336ZM11.6382 3.32031C11.6382 3.77441 11.2749 4.1377 10.8208 4.1377C10.3667 4.1377 10.0034 3.77441 10.0034 3.32031C10.0034 2.86621 10.3667 2.50293 10.8208 2.50293C11.2749 2.50293 11.6382 2.86621 11.6382 3.32031ZM13.939 4.1377C13.9995 5.25781 13.9995 8.61816 13.939 9.73828C13.8784 10.8281 13.6362 11.7666 12.8491 12.584C12.062 13.3711 11.0932 13.6133 10.0034 13.6738C8.88329 13.7344 5.52294 13.7344 4.40282 13.6738C3.31298 13.6133 2.3745 13.3711 1.55712 12.584C0.770007 11.7666 0.527819 10.8281 0.467272 9.73828C0.406725 8.61816 0.406725 5.25781 0.467272 4.1377C0.527819 3.04785 0.770007 2.0791 1.55712 1.29199C2.3745 0.504883 3.31298 0.262695 4.40282 0.202148C5.52294 0.141602 8.88329 0.141602 10.0034 0.202148C11.0932 0.262695 12.062 0.504883 12.8491 1.29199C13.6362 2.0791 13.8784 3.04785 13.939 4.1377ZM12.4858 10.9189C12.8491 10.041 12.7583 7.92188 12.7583 6.92285C12.7583 5.9541 12.8491 3.83496 12.4858 2.92676C12.2436 2.35156 11.7895 1.86719 11.2143 1.65527C10.3061 1.29199 8.187 1.38281 7.21825 1.38281C6.21923 1.38281 4.10008 1.29199 3.22216 1.65527C2.61669 1.89746 2.16258 2.35156 1.9204 2.92676C1.55712 3.83496 1.64794 5.9541 1.64794 6.92285C1.64794 7.92188 1.55712 10.041 1.9204 10.9189C2.16258 11.5244 2.61669 11.9785 3.22216 12.2207C4.10008 12.584 6.21923 12.4932 7.21825 12.4932C8.187 12.4932 10.3061 12.584 11.2143 12.2207C11.7895 11.9785 12.2739 11.5244 12.4858 10.9189Z" fill="#4B5565"/>
</svg>
