<svg width="14" height="14" viewBox="0 0 14 14" fill="none" xmlns="http://www.w3.org/2000/svg">
<path d="M3.10433 13.7354H0.288897V4.68359H3.10433V13.7354ZM1.68148 3.47266C0.803545 3.47266 0.076983 2.71582 0.076983 1.80762C0.076983 0.929688 0.803545 0.203125 1.68148 0.203125C2.58968 0.203125 3.31624 0.929688 3.31624 1.80762C3.31624 2.71582 2.58968 3.47266 1.68148 3.47266ZM13.6092 13.7354H10.8241V9.3457C10.8241 8.28613 10.7938 6.9541 9.34065 6.9541C7.88753 6.9541 7.67562 8.07422 7.67562 9.25488V13.7354H4.86019V4.68359H7.55452V5.9248H7.5848C7.97835 5.22852 8.88655 4.47168 10.2489 4.47168C13.0946 4.47168 13.6395 6.34863 13.6395 8.77051V13.7354H13.6092Z" fill="#4B5565"/>
</svg>
