<svg width="17" height="14" viewBox="0 0 17 14" fill="none" xmlns="http://www.w3.org/2000/svg">
<path d="M14.7557 3.77441C14.7557 3.92578 14.7557 4.04688 14.7557 4.19824C14.7557 8.40625 11.577 13.2197 5.73426 13.2197C3.91785 13.2197 2.25281 12.7051 0.860232 11.7969C1.10242 11.8271 1.34461 11.8574 1.61707 11.8574C3.10047 11.8574 4.46277 11.3428 5.55261 10.4951C4.16004 10.4648 2.97937 9.55664 2.58582 8.28516C2.79773 8.31543 2.97937 8.3457 3.19129 8.3457C3.46375 8.3457 3.76648 8.28516 4.00867 8.22461C2.55554 7.92188 1.4657 6.65039 1.4657 5.10645V5.07617C1.88953 5.31836 2.40418 5.43945 2.91883 5.46973C2.0409 4.89453 1.49597 3.92578 1.49597 2.83594C1.49597 2.23047 1.64734 1.68555 1.9198 1.23145C3.49402 3.13867 5.85535 4.41016 8.48914 4.56152C8.42859 4.31934 8.39832 4.07715 8.39832 3.83496C8.39832 2.0791 9.82117 0.65625 11.577 0.65625C12.4852 0.65625 13.3026 1.01953 13.9081 1.65527C14.6044 1.50391 15.3007 1.23145 15.9061 0.868164C15.6639 1.625 15.1796 2.23047 14.5136 2.62402C15.1493 2.56348 15.785 2.38184 16.33 2.13965C15.9061 2.77539 15.3612 3.32031 14.7557 3.77441Z" fill="#4B5565"/>
</svg>
